<svg xmlns="http://www.w3.org/2000/svg" width="25" height="25" viewBox="0 0 25 25" fill="none">
<g clip-path="url(#clip0_103_350)">
<path fill-rule="evenodd" clip-rule="evenodd" d="M13.2365 16.3614C13.0411 16.5566 12.7762 16.6664 12.5 16.6664C12.2238 16.6664 11.9589 16.5566 11.7635 16.3614L5.87083 10.4687C5.77134 10.3726 5.69199 10.2576 5.6374 10.1305C5.5828 10.0035 5.55407 9.86676 5.55287 9.72845C5.55166 9.59014 5.57802 9.45297 5.6304 9.32496C5.68277 9.19694 5.76012 9.08064 5.85792 8.98283C5.95573 8.88503 6.07203 8.80768 6.20005 8.7553C6.32807 8.70293 6.46523 8.67657 6.60354 8.67777C6.74186 8.67898 6.87854 8.70771 7.00563 8.7623C7.13272 8.8169 7.24766 8.89625 7.34375 8.99574L12.5 14.152L17.6563 8.99574C17.8527 8.80599 18.1158 8.701 18.389 8.70337C18.6621 8.70575 18.9233 8.8153 19.1165 9.00843C19.3096 9.20156 19.4192 9.46283 19.4215 9.73595C19.4239 10.0091 19.3189 10.2722 19.1292 10.4687L13.2365 16.3614Z" fill="#0873FF"></path>
</g>
<defs>
<clipPath id="clip0_103_350">
<rect width="25" height="25" fill="white"></rect>
</clipPath>
</defs>
</svg>