<svg xmlns="http://www.w3.org/2000/svg" width="30" height="30" viewBox="0 0 30 30" fill="none">
<g clip-path="url(#clip0_1_512)">
<g filter="url(#filter0_d_1_512)">
<path d="M13.1512 3.28C13.3855 3.02261 13.671 2.81698 13.9894 2.67627C14.3077 2.53557 14.6519 2.46289 15 2.46289C15.3481 2.46289 15.6923 2.53557 16.0106 2.67627C16.329 2.81698 16.6145 3.02261 16.8487 3.28L18.1237 4.68C18.3713 4.95177 18.6758 5.1656 19.0154 5.30625C19.355 5.44691 19.7215 5.51093 20.0887 5.49375L21.98 5.40625C22.3275 5.38987 22.6747 5.44622 22.9992 5.57169C23.3237 5.69715 23.6184 5.88897 23.8646 6.13487C24.1107 6.38077 24.3028 6.67534 24.4286 6.99973C24.5544 7.32412 24.611 7.6712 24.595 8.01875L24.5062 9.91125C24.4891 10.2785 24.5531 10.645 24.6937 10.9846C24.8344 11.3242 25.0482 11.6287 25.32 11.8762L26.72 13.1512C26.9774 13.3855 27.183 13.671 27.3237 13.9894C27.4644 14.3077 27.5371 14.6519 27.5371 15C27.5371 15.3481 27.4644 15.6923 27.3237 16.0106C27.183 16.329 26.9774 16.6145 26.72 16.8487L25.32 18.1237C25.0482 18.3713 24.8344 18.6758 24.6937 19.0154C24.5531 19.355 24.4891 19.7215 24.5062 20.0887L24.5937 21.98C24.6101 22.3275 24.5538 22.6747 24.4283 22.9992C24.3028 23.3237 24.111 23.6184 23.8651 23.8646C23.6192 24.1107 23.3247 24.3028 23.0003 24.4286C22.6759 24.5544 22.3288 24.611 21.9812 24.595L20.0887 24.5062C19.7215 24.4891 19.355 24.5531 19.0154 24.6937C18.6758 24.8344 18.3713 25.0482 18.1237 25.32L16.8487 26.72C16.6145 26.9774 16.329 27.183 16.0106 27.3237C15.6923 27.4644 15.3481 27.5371 15 27.5371C14.6519 27.5371 14.3077 27.4644 13.9894 27.3237C13.671 27.183 13.3855 26.9774 13.1512 26.72L11.8762 25.32C11.6287 25.0482 11.3242 24.8344 10.9846 24.6937C10.645 24.5531 10.2785 24.4891 9.91125 24.5062L8.02 24.5937C7.67246 24.6101 7.32533 24.5538 7.00082 24.4283C6.67631 24.3028 6.38155 24.111 6.13542 23.8651C5.88928 23.6192 5.69718 23.3247 5.57141 23.0003C5.44564 22.6759 5.38896 22.3288 5.405 21.9812L5.49375 20.0887C5.51093 19.7215 5.44691 19.355 5.30625 19.0154C5.1656 18.6758 4.95177 18.3713 4.68 18.1237L3.28 16.8487C3.02261 16.6145 2.81698 16.329 2.67627 16.0106C2.53557 15.6923 2.46289 15.3481 2.46289 15C2.46289 14.6519 2.53557 14.3077 2.67627 13.9894C2.81698 13.671 3.02261 13.3855 3.28 13.1512L4.68 11.8762C4.95177 11.6287 5.1656 11.3242 5.30625 10.9846C5.44691 10.645 5.51093 10.2785 5.49375 9.91125L5.40625 8.02C5.38987 7.67246 5.44622 7.32533 5.57169 7.00082C5.69715 6.67631 5.88897 6.38155 6.13487 6.13542C6.38077 5.88928 6.67534 5.69718 6.99973 5.57141C7.32412 5.44564 7.6712 5.38896 8.01875 5.405L9.91125 5.49375C10.2785 5.51093 10.645 5.44691 10.9846 5.30625C11.3242 5.1656 11.6287 4.95177 11.8762 4.68L13.1512 3.28Z" stroke="#0061DF" stroke-width="2.5"></path>
<path d="M11.25 15L13.75 17.5L18.75 12.5" stroke="#0061DF" stroke-width="2.5" stroke-linecap="round" stroke-linejoin="round"></path>
</g>
</g>
<defs>
<filter id="filter0_d_1_512" x="-0.787109" y="-0.787109" width="35.5742" height="35.5742" filterUnits="userSpaceOnUse" color-interpolation-filters="sRGB">
<feFlood flood-opacity="0" result="BackgroundImageFix"></feFlood>
<feColorMatrix in="SourceAlpha" type="matrix" values="0 0 0 0 0 0 0 0 0 0 0 0 0 0 0 0 0 0 127 0" result="hardAlpha"></feColorMatrix>
<feOffset dx="2" dy="2"></feOffset>
<feGaussianBlur stdDeviation="2"></feGaussianBlur>
<feComposite in2="hardAlpha" operator="out"></feComposite>
<feColorMatrix type="matrix" values="0 0 0 0 0 0 0 0 0 0.380392 0 0 0 0 0.87451 0 0 0 0.1 0"></feColorMatrix>
<feBlend mode="normal" in2="BackgroundImageFix" result="effect1_dropShadow_1_512"></feBlend>
<feBlend mode="normal" in="SourceGraphic" in2="effect1_dropShadow_1_512" result="shape"></feBlend>
</filter>
<clipPath id="clip0_1_512">
<rect width="30" height="30" fill="white"></rect>
</clipPath>
</defs>
</svg>