<svg xmlns="http://www.w3.org/2000/svg" width="30" height="30" viewBox="0 0 30 30" fill="none">
<g clip-path="url(#clip0_1_460)">
<g filter="url(#filter0_d_1_460)">
<path fill-rule="evenodd" clip-rule="evenodd" d="M25 10.0013C24.9999 10.6852 24.8595 11.3618 24.5876 11.9893C24.3156 12.6168 23.9178 13.1818 23.4188 13.6494C22.9198 14.1171 22.3302 14.4774 21.6864 14.7081C21.0426 14.9389 20.3583 15.0351 19.6758 14.9909C18.7057 14.9297 17.6666 15.1331 17.0443 15.8799L10.3499 23.9142C10.0803 24.2367 9.74663 24.4995 9.36998 24.6859C8.99333 24.8723 8.58198 24.9783 8.16213 24.997C7.74228 25.0157 7.32313 24.9468 6.93137 24.7947C6.5396 24.6426 6.18381 24.4106 5.88663 24.1134C5.58946 23.8162 5.35742 23.4605 5.20529 23.0687C5.05316 22.677 4.98427 22.2578 5.00301 21.838C5.02175 21.4181 5.12771 21.0068 5.31413 20.6302C5.50056 20.2535 5.76337 19.9198 6.08584 19.6503L14.1205 12.9573C14.8673 12.335 15.0706 11.2959 15.0095 10.3258C14.9564 9.51168 15.1034 8.69693 15.4375 7.95262C15.7717 7.20831 16.2829 6.55707 16.9265 6.05569C17.5702 5.55431 18.3268 5.21802 19.1302 5.07617C19.9337 4.93431 20.7597 4.99119 21.5361 5.24185C21.8962 5.35853 21.9695 5.80859 21.7028 6.07751L18.7101 9.06789C18.6377 9.13701 18.5874 9.22607 18.5656 9.3238C18.5438 9.42153 18.5516 9.52352 18.5879 9.61685C18.9271 10.4289 19.5728 11.0745 20.3848 11.4137C20.5737 11.4915 20.7882 11.436 20.9327 11.2904L23.9243 8.2989C24.1921 8.03109 24.6433 8.10554 24.76 8.46559C24.9155 8.94898 25 9.46572 25 10.0013ZM8.33065 22.7807C8.62538 22.7807 8.90804 22.6636 9.11645 22.4552C9.32485 22.2468 9.44194 21.9642 9.44194 21.6695C9.44194 21.3748 9.32485 21.0921 9.11645 20.8837C8.90804 20.6753 8.62538 20.5582 8.33065 20.5582C8.03591 20.5582 7.75325 20.6753 7.54484 20.8837C7.33644 21.0921 7.21936 21.3748 7.21936 21.6695C7.21936 21.9642 7.33644 22.2468 7.54484 22.4552C7.75325 22.6636 8.03591 22.7807 8.33065 22.7807Z" fill="#0061DF"></path>
<path d="M16.004 15C14.4148 15.0105 12.8938 15.6464 11.7701 16.7701C10.6464 17.8938 10.0105 19.4148 10 21.004C10 24.2901 12.7178 27.0079 16.004 27.0079C19.2881 27.0079 22.0079 24.2901 22.0079 21.004C22.0079 17.7198 19.2881 15 16.004 15Z" fill="white"></path>
<line x1="19.3262" y1="16.3044" x2="13.3222" y2="26.7035" stroke="#0061DF" stroke-width="2"></line>
<path d="M16.004 15C14.4148 15.0105 12.8938 15.6464 11.7701 16.7701C10.6464 17.8938 10.0105 19.4148 10 21.004C10 24.2901 12.7178 27.0079 16.004 27.0079C19.2881 27.0079 22.0079 24.2901 22.0079 21.004C22.0079 17.7198 19.2881 15 16.004 15Z" stroke="#0061DF" stroke-width="2"></path>
</g>
</g>
<defs>
<filter id="filter0_d_1_460" x="3" y="3" width="28" height="31.0079" filterUnits="userSpaceOnUse" color-interpolation-filters="sRGB">
<feFlood flood-opacity="0" result="BackgroundImageFix"></feFlood>
<feColorMatrix in="SourceAlpha" type="matrix" values="0 0 0 0 0 0 0 0 0 0 0 0 0 0 0 0 0 0 127 0" result="hardAlpha"></feColorMatrix>
<feOffset dx="2" dy="2"></feOffset>
<feGaussianBlur stdDeviation="2"></feGaussianBlur>
<feComposite in2="hardAlpha" operator="out"></feComposite>
<feColorMatrix type="matrix" values="0 0 0 0 0 0 0 0 0 0.380392 0 0 0 0 0.87451 0 0 0 0.1 0"></feColorMatrix>
<feBlend mode="normal" in2="BackgroundImageFix" result="effect1_dropShadow_1_460"></feBlend>
<feBlend mode="normal" in="SourceGraphic" in2="effect1_dropShadow_1_460" result="shape"></feBlend>
</filter>
<clipPath id="clip0_1_460">
<rect width="30" height="30" fill="white"></rect>
</clipPath>
</defs>
</svg>