<svg xmlns="http://www.w3.org/2000/svg" width="32" height="32" viewBox="0 0 32 32" fill="none">
<g clip-path="url(#clip0_29_433)">
<mask id="mask0_29_433" style="mask-type:alpha" maskUnits="userSpaceOnUse" x="2" y="2" width="28" height="28">
<path d="M26.6667 2.66675H5.33341C3.86675 2.66675 2.66675 3.86675 2.66675 5.33341V26.6667C2.66675 28.1334 3.86675 29.3334 5.33341 29.3334H26.6667C28.1334 29.3334 29.3334 28.1334 29.3334 26.6667V5.33341C29.3334 3.86675 28.1334 2.66675 26.6667 2.66675ZM23.6001 12.4001C23.4667 18.5334 19.6001 22.8001 13.7334 23.0667C11.3334 23.2001 9.60008 22.4001 8.00008 21.4667C9.73341 21.7335 12.0001 21.0668 13.2001 20.0001C11.4667 19.8667 10.4001 18.9334 9.86675 17.4667C10.4001 17.6001 10.9334 17.4667 11.3334 17.4667C9.73341 16.9334 8.66675 16.0001 8.53341 13.8667C8.93341 14.1334 9.46675 14.2667 10.0001 14.2667C8.80008 13.6001 8.00008 11.0667 8.93341 9.46675C10.6667 11.3334 12.8001 12.9334 16.2667 13.2001C15.3334 9.46675 20.4001 7.46675 22.4001 10.0001C23.3335 9.86675 24.0001 9.46675 24.6668 9.20008C24.4001 10.1334 23.8668 10.6667 23.2001 11.2001C23.8668 11.0667 24.5335 10.9334 25.0668 10.6667C24.9334 11.3334 24.2667 11.8667 23.6001 12.4001Z" fill="#050000"></path>
</mask>
<g mask="url(#mask0_29_433)">
<rect width="32" height="32" fill="#2B2B2B"></rect>
</g>
</g>
<defs>
<clipPath id="clip0_29_433">
<rect width="32" height="32" fill="white"></rect>
</clipPath>
</defs>
</svg>