<svg xmlns="http://www.w3.org/2000/svg" width="32" height="32" viewBox="0 0 32 32" fill="none">
<g clip-path="url(#clip0_29_445)">
<mask id="mask0_29_445" style="mask-type:alpha" maskUnits="userSpaceOnUse" x="2" y="2" width="28" height="28">
<path d="M29.3334 5.3225C29.3334 3.85549 28.1442 2.66675 26.6772 2.66675H5.323C3.85599 2.66675 2.66675 3.8555 2.66675 5.3225C2.66675 5.71527 2.66675 6.13587 2.66675 6.573V26.6771C2.66675 28.1442 3.8555 29.3334 5.32251 29.3334C5.71528 29.3334 6.13588 29.3334 6.573 29.3334H25.4272C25.8643 29.3334 26.2849 29.3334 26.6777 29.3334C28.1447 29.3334 29.3334 28.1442 29.3334 26.6771V6.573C29.3334 6.13587 29.3334 5.71527 29.3334 5.3225ZM16.0522 22.9792C12.175 22.9792 9.02091 19.8251 9.02091 15.948C9.02091 12.0708 12.175 8.91675 16.0522 8.91675C19.9293 8.91675 23.0834 12.0708 23.0834 15.948C23.0834 19.8251 19.9293 22.9792 16.0522 22.9792ZM23.8647 10.4792C22.5723 10.4792 21.5209 9.42781 21.5209 8.1355C21.5209 6.84318 22.5723 5.79175 23.8647 5.79175C25.157 5.79175 26.2084 6.84318 26.2084 8.1355C26.2084 9.42781 25.157 10.4792 23.8647 10.4792Z" fill="black"></path>
<path d="M16.0522 11.9897C13.8698 11.9897 12.0938 13.7656 12.0938 15.948C12.0938 18.1304 13.8698 19.9063 16.0522 19.9063C18.2345 19.9063 20.0105 18.1304 20.0105 15.948C20.0105 13.7656 18.2345 11.9897 16.0522 11.9897Z" fill="black"></path>
</mask>
<g mask="url(#mask0_29_445)">
<rect width="32" height="32" fill="#2B2B2B"></rect>
</g>
</g>
<defs>
<clipPath id="clip0_29_445">
<rect width="32" height="32" fill="white"></rect>
</clipPath>
</defs>
</svg>