<svg xmlns="http://www.w3.org/2000/svg" width="30" height="30" viewBox="0 0 30 30" fill="none">
<g clip-path="url(#clip0_1_480)">
<g filter="url(#filter0_d_1_480)">
<path d="M7.33334 25.7143C6.73096 25.7143 6.2151 25.5043 5.78577 25.0843C5.35643 24.6643 5.14213 24.16 5.14286 23.5714V8.57142C5.14286 7.98214 5.35753 7.47749 5.78686 7.05749C6.2162 6.63749 6.73169 6.42785 7.33334 6.42857H8.42858V5.35714C8.42858 5.05357 8.53372 4.79892 8.744 4.59321C8.95429 4.38749 9.21423 4.28499 9.52381 4.28571C9.83413 4.28571 10.0944 4.38857 10.3047 4.59428C10.515 4.79999 10.6198 5.05428 10.6191 5.35714V6.42857H19.381V5.35714C19.381 5.05357 19.4861 4.79892 19.6964 4.59321C19.9067 4.38749 20.1666 4.28499 20.4762 4.28571C20.7865 4.28571 21.0468 4.38857 21.2571 4.59428C21.4674 4.79999 21.5722 5.05428 21.5714 5.35714V6.42857H22.6667C23.269 6.42857 23.7849 6.63857 24.2142 7.05857C24.6436 7.47857 24.8579 7.98285 24.8571 8.57142V23.5714C24.8571 24.1607 24.6425 24.6653 24.2131 25.0853C23.7838 25.5053 23.2683 25.715 22.6667 25.7143H7.33334ZM7.33334 23.5714H22.6667V12.8571H7.33334V23.5714ZM14.5345 21.5357L13.631 19.5536L11.6048 18.6696C11.404 18.5803 11.3036 18.4286 11.3036 18.2143C11.3036 18 11.404 17.8482 11.6048 17.7589L13.631 16.875L14.5345 14.8928C14.6258 14.6964 14.781 14.5982 15 14.5982C15.2191 14.5982 15.3742 14.6964 15.4655 14.8928L16.3691 16.875L18.3952 17.7589C18.596 17.8482 18.6964 18 18.6964 18.2143C18.6964 18.4286 18.596 18.5803 18.3952 18.6696L16.3691 19.5536L15.4655 21.5357C15.3742 21.7321 15.2191 21.8303 15 21.8303C14.781 21.8303 14.6258 21.7321 14.5345 21.5357Z" fill="#0061DF"></path>
</g>
</g>
<defs>
<filter id="filter0_d_1_480" x="3.14286" y="2.28571" width="27.7143" height="29.4286" filterUnits="userSpaceOnUse" color-interpolation-filters="sRGB">
<feFlood flood-opacity="0" result="BackgroundImageFix"></feFlood>
<feColorMatrix in="SourceAlpha" type="matrix" values="0 0 0 0 0 0 0 0 0 0 0 0 0 0 0 0 0 0 127 0" result="hardAlpha"></feColorMatrix>
<feOffset dx="2" dy="2"></feOffset>
<feGaussianBlur stdDeviation="2"></feGaussianBlur>
<feComposite in2="hardAlpha" operator="out"></feComposite>
<feColorMatrix type="matrix" values="0 0 0 0 0 0 0 0 0 0.380392 0 0 0 0 0.87451 0 0 0 0.1 0"></feColorMatrix>
<feBlend mode="normal" in2="BackgroundImageFix" result="effect1_dropShadow_1_480"></feBlend>
<feBlend mode="normal" in="SourceGraphic" in2="effect1_dropShadow_1_480" result="shape"></feBlend>
</filter>
<clipPath id="clip0_1_480">
<rect width="30" height="30" fill="white"></rect>
</clipPath>
</defs>
</svg>