<svg xmlns="http://www.w3.org/2000/svg" width="30" height="30" viewBox="0 0 30 30" fill="none">
<g clip-path="url(#clip0_1_490)">
<g filter="url(#filter0_d_1_490)">
<path d="M18.4375 18.75C19.645 18.75 20.625 19.73 20.625 20.9375L20.6238 22.14C20.77 24.8775 18.735 26.2613 15.0838 26.2613C11.4462 26.2613 9.375 24.8988 9.375 22.1875V20.9375C9.375 19.73 10.355 18.75 11.5625 18.75H18.4375ZM4.6875 12.5H10.1575C9.9394 13.3487 9.94779 14.2398 10.1818 15.0843C10.4159 15.9288 10.8674 16.6971 11.4913 17.3125L11.6937 17.5013L11.5625 17.5C10.8123 17.4997 10.0826 17.7449 9.48472 18.1981C8.88686 18.6513 8.45367 19.2876 8.25125 20.01L8.20875 20.0113C4.57125 20.0113 2.5 18.6488 2.5 15.9375V14.6875C2.5 13.48 3.48 12.5 4.6875 12.5ZM25.3125 12.5C26.52 12.5 27.5 13.48 27.5 14.6875L27.4988 15.89C27.645 18.6275 25.61 20.0113 21.9587 20.0113L21.7475 20.0088C21.5553 19.3279 21.1582 18.7227 20.61 18.2754C20.0619 17.8281 19.3893 17.5604 18.6838 17.5087L18.4375 17.5L18.3063 17.5013C19.0001 16.8918 19.5112 16.1016 19.7824 15.2188C20.0537 14.336 20.0745 13.3952 19.8425 12.5013L25.3125 12.5ZM15 10C15.4925 10 15.9801 10.097 16.4351 10.2855C16.89 10.4739 17.3034 10.7501 17.6517 11.0983C17.9999 11.4466 18.2761 11.86 18.4645 12.3149C18.653 12.7699 18.75 13.2575 18.75 13.75C18.75 14.2425 18.653 14.7301 18.4645 15.1851C18.2761 15.64 17.9999 16.0534 17.6517 16.4017C17.3034 16.7499 16.89 17.0261 16.4351 17.2145C15.9801 17.403 15.4925 17.5 15 17.5C14.0054 17.5 13.0516 17.1049 12.3483 16.4017C11.6451 15.6984 11.25 14.7446 11.25 13.75C11.25 12.7554 11.6451 11.8016 12.3483 11.0983C13.0516 10.3951 14.0054 10 15 10ZM8.125 3.75C9.11956 3.75 10.0734 4.14509 10.7767 4.84835C11.4799 5.55161 11.875 6.50544 11.875 7.5C11.875 8.49456 11.4799 9.44839 10.7767 10.1517C10.0734 10.8549 9.11956 11.25 8.125 11.25C7.13044 11.25 6.17661 10.8549 5.47335 10.1517C4.77009 9.44839 4.375 8.49456 4.375 7.5C4.375 6.50544 4.77009 5.55161 5.47335 4.84835C6.17661 4.14509 7.13044 3.75 8.125 3.75ZM21.875 3.75C22.8696 3.75 23.8234 4.14509 24.5267 4.84835C25.2299 5.55161 25.625 6.50544 25.625 7.5C25.625 8.49456 25.2299 9.44839 24.5267 10.1517C23.8234 10.8549 22.8696 11.25 21.875 11.25C20.8804 11.25 19.9266 10.8549 19.2233 10.1517C18.5201 9.44839 18.125 8.49456 18.125 7.5C18.125 6.50544 18.5201 5.55161 19.2233 4.84835C19.9266 4.14509 20.8804 3.75 21.875 3.75Z" fill="#0061DF"></path>
</g>
</g>
<defs>
<filter id="filter0_d_1_490" x="0.5" y="1.75" width="33.0061" height="30.5112" filterUnits="userSpaceOnUse" color-interpolation-filters="sRGB">
<feFlood flood-opacity="0" result="BackgroundImageFix"></feFlood>
<feColorMatrix in="SourceAlpha" type="matrix" values="0 0 0 0 0 0 0 0 0 0 0 0 0 0 0 0 0 0 127 0" result="hardAlpha"></feColorMatrix>
<feOffset dx="2" dy="2"></feOffset>
<feGaussianBlur stdDeviation="2"></feGaussianBlur>
<feComposite in2="hardAlpha" operator="out"></feComposite>
<feColorMatrix type="matrix" values="0 0 0 0 0 0 0 0 0 0.380392 0 0 0 0 0.87451 0 0 0 0.1 0"></feColorMatrix>
<feBlend mode="normal" in2="BackgroundImageFix" result="effect1_dropShadow_1_490"></feBlend>
<feBlend mode="normal" in="SourceGraphic" in2="effect1_dropShadow_1_490" result="shape"></feBlend>
</filter>
<clipPath id="clip0_1_490">
<rect width="30" height="30" fill="white"></rect>
</clipPath>
</defs>
</svg>