<?xml version="1.0" encoding="utf-8"?>
<!-- Generator: Adobe Illustrator 21.0.0, SVG Export Plug-In . SVG Version: 6.00 Build 0)  -->
<svg version="1.1" id="Layer_1" xmlns="http://www.w3.org/2000/svg" xmlns:xlink="http://www.w3.org/1999/xlink" x="0px" y="0px"
	 viewBox="0 0 933 933" style="enable-background:new 0 0 933 933;" xml:space="preserve">
<path d="M930.1,125.3c-3.3-15.6-6.9-25.2-14.5-40.3C894.4,43.4,857,14.6,809.2,3.1c-9.5-2.3-26.4-2.4-338-2.7
	c-180.4-0.1-329.7,0.1-332,0.4C118.8,3.4,103,8.2,84.9,17.5C55.4,32.6,32.5,55.5,17.4,85c-7.6,15.1-11.2,24.7-14.5,40.3
	c-2.3,10.8-2.4,27.1-2.4,341.2s0.1,330.4,2.4,341.2c3.3,15.6,6.9,25.2,14.5,40.3c15.1,29.5,38,52.4,67.5,67.5
	c15.1,7.6,24.7,11.2,40.3,14.5c10.8,2.3,27.1,2.4,341.3,2.4s330.5-0.1,341.3-2.4c15.6-3.3,25.2-6.9,40.3-14.5
	c29.5-15.1,52.4-38,67.5-67.5c7.6-15.1,11.2-24.7,14.5-40.3c2.3-10.8,2.4-27.1,2.4-341.2S932.4,136.1,930.1,125.3z M703.2,721.5
	c0,8.7-7.1,15.8-15.8,15.8H529.6c-8.3,0-15.1-6.4-15.7-14.6c0-0.4-0.1-0.8-0.1-1.2V568.5c0-26.1-21.2-47.4-47.4-47.4
	s-47.4,21.2-47.4,47.4v152.9c0,0.5,0,0.9-0.1,1.2c-0.6,8.1-7.4,14.6-15.7,14.6H245.5c-8.7,0-15.8-7.1-15.8-15.8v-267
	c0-8.7,7.1-15.8,15.8-15.8s15.8,7.1,15.8,15.8v251.2h126.3V568.5c0-43.5,35.4-78.9,78.9-78.9c43.5,0,78.9,35.4,78.9,78.9v137.1
	h126.3V454.5c0-8.7,7.1-15.8,15.8-15.8c8.7,0,15.8,7.1,15.8,15.8V721.5z M767.2,431.7c-3.1,4.2-7.9,6.5-12.7,6.5c-3.2,0-6.5-1-9.3-3
	l-278.6-204l-278.6,204c-7,5.1-16.9,3.6-22.1-3.4c-5.2-7-3.6-16.9,3.4-22.1l287.9-210.8c5.5-4.1,13.1-4.1,18.6,0l287.9,210.8
	C770.8,414.8,772.3,424.7,767.2,431.7z"/>
</svg>
